<?xml version="1.0" standalone="no"?>
<svg
  width="600"
  height="600"
  viewBox="0 0 600 600"
  xmlns="http://www.w3.org/2000/svg"
>
  <g transform="translate(300,300)">
    <path d="M86.4,-117.1C116.3,-97.1,148,-77.8,162.2,-49.2C176.3,-20.6,172.8,17.2,161.3,52.4C149.9,87.6,130.5,120.3,102.3,160.6C74.1,200.9,37,249,-5.1,256C-47.2,263,-94.4,229,-138.3,193.7C-182.3,158.5,-222.8,122.1,-231.4,79.1C-240,36.2,-216.5,-13.3,-184.7,-44.1C-152.8,-75,-112.6,-87.2,-80.4,-106.5C-48.2,-125.7,-24.1,-151.8,2.1,-154.7C28.2,-157.5,56.4,-137,86.4,-117.1Z" fill="#7e17ed" />
  </g>
</svg>
    