<?xml version="1.0" encoding="utf-8"?>
<!-- Generator: Adobe Illustrator 23.0.2, SVG Export Plug-In . SVG Version: 6.00 Build 0)  -->
<svg version="1.1" id="Layer_1" xmlns="http://www.w3.org/2000/svg" xmlns:xlink="http://www.w3.org/1999/xlink" x="0px" y="0px"
	 viewBox="0 0 202 381" style="enable-background:new 0 0 202 381;" xml:space="preserve">
<style type="text/css">
	.st0{fill:#212121;}
	.st1{opacity:0.7;}
	.st2{fill:#D5D5D5;}
	.st3{fill:#FFFFFF;}
	.st4{fill:url(#SVGID_1_);}
	.st5{opacity:0.5;}
	.st6{fill:#333333;}
	.st7{fill:#3D3D3D;}
	.st8{fill:#0D47A1;}
	.st9{opacity:0.7;fill:url(#SVGID_2_);enable-background:new    ;}
	.st10{opacity:0.7;fill:url(#SVGID_3_);enable-background:new    ;}
	.st11{fill:#7596C9;}
	.st12{opacity:0.3;fill:url(#SVGID_4_);enable-background:new    ;}
	.st13{opacity:0.3;}
	.st14{fill:#858585;}
	.st15{opacity:0.5;fill:url(#SVGID_5_);enable-background:new    ;}
	.st16{opacity:0.5;fill:url(#SVGID_6_);enable-background:new    ;}
	.st17{opacity:0.7;fill:url(#SVGID_7_);enable-background:new    ;}
	.st18{opacity:0.7;fill:url(#SVGID_8_);enable-background:new    ;}
	.st19{opacity:0.7;fill:url(#SVGID_9_);enable-background:new    ;}
	.st20{fill:none;}
	.st21{font-family:'Raleway-Bold';}
	.st22{font-size:36px;}
	.st23{font-family:'Raleway-SemiBold';}
	.st24{font-size:12px;}
	.st25{fill:none;stroke:#FFFFFF;stroke-miterlimit:10;}
	.st26{font-family:'Raleway-Regular';}
	.st27{font-size:11px;}
</style>
<g id="Background">
</g>
<path class="st0" d="M168.4,373.3H38.6c-14.4,0-26.1-11.7-26.1-26.1V32.8c0-14.4,11.7-26.1,26.1-26.1h129.8
	c14.4,0,26.1,11.7,26.1,26.1v314.5C194.5,361.7,182.8,373.3,168.4,373.3z"/>
<path class="st0" d="M12.5,65.5h-1.1c-0.6,0-1.2-0.5-1.2-1.2V52.2c0-0.6,0.5-1.2,1.2-1.2h1.1V65.5z"/>
<g class="st1">
	<g>
		<path class="st2" d="M12.5,64.7h-1.1c-0.6,0-1.2-0.5-1.2-1.2V53c0-0.6,0.5-1.2,1.2-1.2h1.1V64.7z"/>
	</g>
</g>
<path class="st0" d="M12.5,113.6h-1.1c-0.6,0-1.2-0.5-1.2-1.2V86.3c0-0.6,0.5-1.2,1.2-1.2h1.1V113.6z"/>
<g class="st1">
	<g>
		<path class="st2" d="M12.5,112.8h-1.1c-0.6,0-1.2-0.5-1.2-1.2V87.2c0-0.6,0.5-1.2,1.2-1.2h1.1V112.8z"/>
	</g>
</g>
<path class="st0" d="M12.5,155.1h-1.1c-0.6,0-1.2-0.5-1.2-1.2v-26.1c0-0.6,0.5-1.2,1.2-1.2h1.1V155.1z"/>
<g class="st1">
	<g>
		<path class="st2" d="M12.5,154.1h-1.1c-0.6,0-1.2-0.5-1.2-1.2v-24c0-0.6,0.5-1.2,1.2-1.2h1.1V154.1z"/>
	</g>
</g>
<g>
	<g>
		<path class="st2" d="M167.9,7.3H39.1c-14.3,0-25.9,11.6-25.9,26v313.4c0,14.4,11.6,26,25.9,26h128.8c14.3,0,25.9-11.6,25.9-26
			V33.3C193.8,19,182.2,7.3,167.9,7.3z M191.1,345.4c0,13.5-10.9,24.4-24.3,24.4H40.1c-13.4,0-24.3-10.9-24.3-24.4V34.6
			c0-13.5,10.9-24.4,24.3-24.4h126.8c13.4,0,24.3,10.9,24.3,24.4V345.4z"/>
	</g>
</g>
<path class="st3" d="M165.7,362.2H41.2c-9.6,0-17.4-7.8-17.4-17.4V33.4c0-9.6,7.8-17.4,17.4-17.4h124.5c9.6,0,17.4,7.8,17.4,17.4
	v311.4C183.2,354.5,175.4,362.2,165.7,362.2z"/>
<linearGradient id="SVGID_1_" gradientUnits="userSpaceOnUse" x1="177.5282" y1="17.3487" x2="-8.3575" y2="460.7318">
	<stop  offset="0" style="stop-color:#50007F"/>
	<stop  offset="0.9987" style="stop-color:#DD15FF;stop-opacity:0.8"/>
</linearGradient>
<path class="st4" d="M173.7,365.3H36c-6.7,0-12.2-5.5-12.2-12.2V28.2C23.8,21.5,29.3,16,36,16h137.7c6.7,0,12.2,5.5,12.2,12.2v324.9
	C185.9,359.9,180.4,365.3,173.7,365.3z"/>
<g class="st5">
	<g>
		<g>
			<path class="st2" d="M21.2,344.8V35.2c0-13.2,10.7-24,23.9-24h-3.8c-13.2,0-23.9,10.7-23.9,24v309.5c0,13.2,10.7,24,23.9,24H45
				C31.9,368.8,21.2,358,21.2,344.8z"/>
			<path class="st2" d="M165.8,11.2h-3.9c13.2,0,23.9,10.7,23.9,24v309.5c0,13.2-10.7,24-23.9,24h3.9c13.2,0,23.9-10.7,23.9-24V35.2
				C189.7,22,179,11.2,165.8,11.2z"/>
		</g>
	</g>
</g>
<path class="st0" d="M103.5,16H50.2c0,0,8.3,0.2,8.8,3.3c0.5,3.2,0.3,10.2,8.5,10.2s36,0,36,0s27.8,0,36,0s8-7,8.5-10.2
	s8.8-3.3,8.8-3.3H103.5z"/>
<g>
	<path class="st6" d="M117.5,22.8H89.1c-0.8,0-1.5-0.6-1.5-1.5l0,0c0-0.8,0.7-1.5,1.5-1.5h28.4c0.8,0,1.5,0.6,1.5,1.5l0,0
		C119,22.1,118.3,22.8,117.5,22.8z"/>
	<g>
		<circle class="st7" cx="128.6" cy="21.3" r="3.2"/>
		<circle class="st8" cx="128.6" cy="21.3" r="2.5"/>
		
			<radialGradient id="SVGID_2_" cx="815.861" cy="582.1407" r="4.5155" gradientTransform="matrix(0.7486 0.663 0.4305 -0.486 -736.4887 -234.2822)" gradientUnits="userSpaceOnUse">
			<stop  offset="0" style="stop-color:#0D47A1"/>
			<stop  offset="0.9755" style="stop-color:#0D47A1;stop-opacity:2.450000e-02"/>
			<stop  offset="1" style="stop-color:#0D47A1;stop-opacity:0"/>
		</radialGradient>
		<circle class="st9" cx="128.6" cy="21.3" r="2.5"/>
		
			<radialGradient id="SVGID_3_" cx="558.1011" cy="92.268" r="4.5155" gradientTransform="matrix(0.9221 0.387 0.2513 -0.5987 -410.4012 -134.9987)" gradientUnits="userSpaceOnUse">
			<stop  offset="0" style="stop-color:#0D47A1"/>
			<stop  offset="0.9755" style="stop-color:#0D47A1;stop-opacity:2.450000e-02"/>
			<stop  offset="1" style="stop-color:#0D47A1;stop-opacity:0"/>
		</radialGradient>
		<circle class="st10" cx="128.6" cy="21.3" r="2.5"/>
		<g class="st5">
			<g>
				<g>
					<path class="st11" d="M127.3,20.8c-0.1,0-0.2,0-0.3-0.1c-0.2-0.2-0.3-0.5-0.1-0.7c0.4-0.5,1-0.9,1.7-1c0.7,0,1.3,0.2,1.8,0.7
						c0.2,0.2,0.2,0.5-0.1,0.7c-0.2,0.2-0.5,0.2-0.7,0c-0.2-0.3-0.6-0.4-0.9-0.4c-0.4,0-0.7,0.2-0.9,0.5
						C127.6,20.7,127.4,20.8,127.3,20.8z"/>
				</g>
			</g>
		</g>
		
			<radialGradient id="SVGID_4_" cx="836.1357" cy="160.6432" r="4.583" gradientTransform="matrix(0.7343 0.6789 0.295 -0.319 -529.3613 -496.2774)" gradientUnits="userSpaceOnUse">
			<stop  offset="0" style="stop-color:#0D47A1"/>
			<stop  offset="0.9755" style="stop-color:#0D47A1;stop-opacity:2.450000e-02"/>
			<stop  offset="1" style="stop-color:#0D47A1;stop-opacity:0"/>
		</radialGradient>
		<circle class="st12" cx="128.6" cy="21.3" r="2.5"/>
	</g>
</g>
<g class="st13">
	<g>
		<path class="st2" d="M32.8,14.7h141.4c0,0-4.7-3.4-12.3-3.4H45C45,11.2,38.2,11,32.8,14.7z"/>
	</g>
</g>
<g class="st13">
	<g>
		<path class="st2" d="M174.2,365.3H32.8c0,0,4.7,3.4,12.3,3.4h116.9C161.9,368.8,168.7,369,174.2,365.3z"/>
	</g>
</g>
<g>
	<rect x="12.5" y="338.6" class="st14" width="4.8" height="1.9"/>
	<rect x="12.5" y="34.4" class="st14" width="4.8" height="1.9"/>
</g>
<g>
	<rect x="189.7" y="338.6" class="st14" width="4.8" height="1.9"/>
	<rect x="189.7" y="34.4" class="st14" width="4.8" height="1.9"/>
</g>
<radialGradient id="SVGID_5_" cx="172.9305" cy="-2087.147" r="107.157" gradientTransform="matrix(0.9985 5.460000e-02 1.740000e-02 -0.318 -28.0142 -683.1555)" gradientUnits="userSpaceOnUse">
	<stop  offset="0" style="stop-color:#AFAFAF"/>
	<stop  offset="0.1751" style="stop-color:#ABABAB;stop-opacity:0.8249"/>
	<stop  offset="0.3425" style="stop-color:#A0A0A0;stop-opacity:0.6575"/>
	<stop  offset="0.507" style="stop-color:#8C8C8C;stop-opacity:0.493"/>
	<stop  offset="0.6695" style="stop-color:#717171;stop-opacity:0.3305"/>
	<stop  offset="0.8307" style="stop-color:#4E4E4E;stop-opacity:0.1693"/>
	<stop  offset="0.9888" style="stop-color:#242424;stop-opacity:1.120000e-02"/>
	<stop  offset="1" style="stop-color:#212121;stop-opacity:0"/>
</radialGradient>
<path class="st15" d="M168.4,6.7H38.6c-14.4,0-26.1,11.7-26.1,26.1V51h-1.1c-0.6,0-1.2,0.5-1.2,1.2v12.2c0,0.6,0.5,1.2,1.2,1.2h1.1
	v19.7h-1.1c-0.6,0-1.2,0.5-1.2,1.2v26.1c0,0.6,0.5,1.2,1.2,1.2h1.1v13.1h-1.1c-0.6,0-1.2,0.5-1.2,1.2v26.1c0,0.6,0.5,1.2,1.2,1.2
	h1.1v192.2c0,14.4,11.7,26.1,26.1,26.1h129.8c14.4,0,26.1-11.7,26.1-26.1V32.8C194.5,18.3,182.8,6.7,168.4,6.7z"/>
<radialGradient id="SVGID_6_" cx="21.8782" cy="-3653.0635" r="49.5101" gradientTransform="matrix(0.9898 -0.1427 -3.380000e-02 -0.2345 51.0299 -849.0274)" gradientUnits="userSpaceOnUse">
	<stop  offset="0" style="stop-color:#545454"/>
	<stop  offset="0.2865" style="stop-color:#505050;stop-opacity:0.7135"/>
	<stop  offset="0.5603" style="stop-color:#454545;stop-opacity:0.4397"/>
	<stop  offset="0.8282" style="stop-color:#323232;stop-opacity:0.1718"/>
	<stop  offset="1" style="stop-color:#212121;stop-opacity:0"/>
</radialGradient>
<path class="st16" d="M168.4,6.7H38.6c-14.4,0-26.1,11.7-26.1,26.1V51h-1.1c-0.6,0-1.2,0.5-1.2,1.2v12.2c0,0.6,0.5,1.2,1.2,1.2h1.1
	v19.7h-1.1c-0.6,0-1.2,0.5-1.2,1.2v26.1c0,0.6,0.5,1.2,1.2,1.2h1.1v13.1h-1.1c-0.6,0-1.2,0.5-1.2,1.2v26.1c0,0.6,0.5,1.2,1.2,1.2
	h1.1v192.2c0,14.4,11.7,26.1,26.1,26.1h129.8c14.4,0,26.1-11.7,26.1-26.1V32.8C194.5,18.3,182.8,6.7,168.4,6.7z"/>
<radialGradient id="SVGID_7_" cx="235.4388" cy="4247.0811" r="56.5081" gradientTransform="matrix(-0.7783 0.6279 0.2429 0.3011 -654.215 -1052.6394)" gradientUnits="userSpaceOnUse">
	<stop  offset="0" style="stop-color:#545454"/>
	<stop  offset="0.2865" style="stop-color:#505050;stop-opacity:0.7135"/>
	<stop  offset="0.5603" style="stop-color:#454545;stop-opacity:0.4397"/>
	<stop  offset="0.8282" style="stop-color:#323232;stop-opacity:0.1718"/>
	<stop  offset="1" style="stop-color:#212121;stop-opacity:0"/>
</radialGradient>
<path class="st17" d="M168.4,6.7H38.6c-14.4,0-26.1,11.7-26.1,26.1V51h-1.1c-0.6,0-1.2,0.5-1.2,1.2v12.2c0,0.6,0.5,1.2,1.2,1.2h1.1
	v19.7h-1.1c-0.6,0-1.2,0.5-1.2,1.2v26.1c0,0.6,0.5,1.2,1.2,1.2h1.1v13.1h-1.1c-0.6,0-1.2,0.5-1.2,1.2v26.1c0,0.6,0.5,1.2,1.2,1.2
	h1.1v192.2c0,14.4,11.7,26.1,26.1,26.1h129.8c14.4,0,26.1-11.7,26.1-26.1V32.8C194.5,18.3,182.8,6.7,168.4,6.7z"/>
<radialGradient id="SVGID_8_" cx="663.9163" cy="-1113.1392" r="58.2872" gradientTransform="matrix(0.7875 0.6163 0.1845 -0.2358 -304.1596 -302.1376)" gradientUnits="userSpaceOnUse">
	<stop  offset="0" style="stop-color:#545454"/>
	<stop  offset="0.2865" style="stop-color:#505050;stop-opacity:0.7135"/>
	<stop  offset="0.5603" style="stop-color:#454545;stop-opacity:0.4397"/>
	<stop  offset="0.8282" style="stop-color:#323232;stop-opacity:0.1718"/>
	<stop  offset="1" style="stop-color:#212121;stop-opacity:0"/>
</radialGradient>
<path class="st18" d="M168.4,6.7H38.6c-14.4,0-26.1,11.7-26.1,26.1V51h-1.1c-0.6,0-1.2,0.5-1.2,1.2v12.2c0,0.6,0.5,1.2,1.2,1.2h1.1
	v19.7h-1.1c-0.6,0-1.2,0.5-1.2,1.2v26.1c0,0.6,0.5,1.2,1.2,1.2h1.1v13.1h-1.1c-0.6,0-1.2,0.5-1.2,1.2v26.1c0,0.6,0.5,1.2,1.2,1.2
	h1.1v192.2c0,14.4,11.7,26.1,26.1,26.1h129.8c14.4,0,26.1-11.7,26.1-26.1V32.8C194.5,18.3,182.8,6.7,168.4,6.7z"/>
<radialGradient id="SVGID_9_" cx="135.3472" cy="4607.0669" r="42.2617" gradientTransform="matrix(-0.7332 0.68 0.2561 0.2762 -1066.589 -1355.7582)" gradientUnits="userSpaceOnUse">
	<stop  offset="0" style="stop-color:#545454"/>
	<stop  offset="0.2865" style="stop-color:#505050;stop-opacity:0.7135"/>
	<stop  offset="0.5603" style="stop-color:#454545;stop-opacity:0.4397"/>
	<stop  offset="0.8282" style="stop-color:#323232;stop-opacity:0.1718"/>
	<stop  offset="1" style="stop-color:#212121;stop-opacity:0"/>
</radialGradient>
<path class="st19" d="M168.4,6.7H38.6c-14.4,0-26.1,11.7-26.1,26.1V51h-1.1c-0.6,0-1.2,0.5-1.2,1.2v12.2c0,0.6,0.5,1.2,1.2,1.2h1.1
	v19.7h-1.1c-0.6,0-1.2,0.5-1.2,1.2v26.1c0,0.6,0.5,1.2,1.2,1.2h1.1v13.1h-1.1c-0.6,0-1.2,0.5-1.2,1.2v26.1c0,0.6,0.5,1.2,1.2,1.2
	h1.1v192.2c0,14.4,11.7,26.1,26.1,26.1h129.8c14.4,0,26.1-11.7,26.1-26.1V32.8C194.5,18.3,182.8,6.7,168.4,6.7z"/>
<g id="Designed_by_Freepik">
</g>
<rect x="29.1" y="93.1" class="st20" width="148.5" height="33.6"/>
<text transform="matrix(1 0 0 1 49.1502 119.3454)" class="st3 st21 st22">Gizmo</text>
<rect x="50.2" y="199.1" class="st20" width="111.8" height="59.1"/>
<text transform="matrix(1 0 0 1 50.1599 207.8517)"><tspan x="0" y="0" class="st3 st23 st24">The most advance </tspan><tspan x="0" y="14.4" class="st3 st23 st24">photo app editor</tspan></text>
<path class="st25" d="M130.4,330.2H71.6c-6.2,0-11.3-5-11.3-11.3v0c0-6.2,5-11.3,11.3-11.3h58.7c6.2,0,11.3,5,11.3,11.3v0
	C141.6,325.1,136.6,330.2,130.4,330.2z"/>
<g>
	<rect x="68.6" y="314.4" class="st20" width="64.9" height="9"/>
	<text transform="matrix(1 0 0 1 84.1153 322.437)" class="st3 st26 st27">LOGIN</text>
</g>
<g>
	<rect x="50.2" y="168.8" class="st25" width="41" height="20.4"/>
	<circle class="st25" cx="59.2" cy="178.9" r="4.6"/>
	<rect x="82.4" y="164.6" class="st25" width="4.2" height="4.2"/>
</g>
</svg>
