<?xml version="1.0" encoding="utf-8"?>
<!-- Generator: Adobe Illustrator 23.0.2, SVG Export Plug-In . SVG Version: 6.00 Build 0)  -->
<svg version="1.1" id="Layer_1" xmlns="http://www.w3.org/2000/svg" xmlns:xlink="http://www.w3.org/1999/xlink" x="0px" y="0px"
	 viewBox="0 0 238.59 55.04" style="enable-background:new 0 0 238.59 55.04;" xml:space="preserve">
<style type="text/css">
	.st0{fill:#FFFFFF;}
</style>
<g>
	<path class="st0" d="M40.66,49.09c-3.65,3.07-7.85,4.61-12.6,4.61c-3.31,0-6.48-0.59-9.5-1.76c-3.02-1.18-5.66-2.89-7.92-5.15
		c-2.26-2.26-4.06-5.02-5.4-8.28c-1.34-3.26-2.02-6.98-2.02-11.16c0-3.6,0.67-6.95,2.02-10.04c1.34-3.1,3.19-5.78,5.54-8.06
		c2.35-2.28,5.12-4.08,8.32-5.4c3.19-1.32,6.64-1.98,10.33-1.98c2.3,0,4.51,0.25,6.62,0.76c2.11,0.5,4.07,1.25,5.87,2.23
		c1.8,0.98,3.42,2.16,4.86,3.53c1.44,1.37,2.62,2.92,3.53,4.64l-10.44,7.99c-1.01-2.02-2.52-3.64-4.54-4.86s-4.15-1.84-6.41-1.84
		c-1.68,0-3.22,0.34-4.61,1.01c-1.39,0.67-2.59,1.61-3.6,2.81c-1.01,1.2-1.8,2.63-2.38,4.28c-0.58,1.66-0.86,3.47-0.86,5.44
		c0,2.02,0.29,3.84,0.86,5.47c0.58,1.63,1.38,3.04,2.41,4.21c1.03,1.18,2.27,2.09,3.71,2.74c1.44,0.65,3.05,0.97,4.82,0.97
		c4.08,0,7.68-1.68,10.8-5.04h-8.86V26.12h21.02v27.22H40.66V49.09z"/>
	<path class="st0" d="M59.17,53.34V2.22h14.04v51.12H59.17z"/>
	<path class="st0" d="M79.54,42.9l23.9-28.44H80.62V2.22h39.02v10.44L97.18,41.1h22.9v12.24H79.54V42.9z"/>
	<path class="st0" d="M165.44,53.34V26.41l-8.57,18.94h-7.49l-8.57-18.94v26.93h-14.04V2.22h15.34l11.02,24.05l11.09-24.05h15.26
		v51.12H165.44z"/>
	<path class="st0" d="M211.3,53.77c-3.89,0-7.42-0.74-10.58-2.23c-3.17-1.49-5.88-3.44-8.14-5.87c-2.26-2.42-4.01-5.2-5.26-8.32
		c-1.25-3.12-1.87-6.34-1.87-9.65c0-3.36,0.65-6.6,1.94-9.72c1.3-3.12,3.11-5.87,5.44-8.24c2.33-2.38,5.09-4.27,8.28-5.69
		c3.19-1.42,6.68-2.12,10.48-2.12c3.89,0,7.42,0.75,10.58,2.23c3.17,1.49,5.88,3.46,8.14,5.9c2.25,2.45,4,5.23,5.22,8.35
		c1.22,3.12,1.84,6.31,1.84,9.58c0,3.36-0.65,6.59-1.94,9.68s-3.1,5.83-5.4,8.21c-2.3,2.38-5.05,4.28-8.24,5.72
		C218.58,53.05,215.09,53.77,211.3,53.77z M199.71,27.85c0,1.73,0.24,3.4,0.72,5c0.48,1.61,1.2,3.04,2.16,4.28
		c0.96,1.25,2.17,2.26,3.64,3.02c1.46,0.77,3.2,1.15,5.22,1.15c2.02,0,3.77-0.4,5.26-1.19c1.49-0.79,2.7-1.82,3.64-3.1
		c0.94-1.27,1.63-2.72,2.09-4.36c0.46-1.63,0.68-3.29,0.68-4.97c0-1.73-0.24-3.4-0.72-5c-0.48-1.61-1.21-3.02-2.2-4.25
		c-0.98-1.22-2.21-2.21-3.67-2.95c-1.46-0.74-3.18-1.12-5.15-1.12c-2.02,0-3.76,0.38-5.22,1.15c-1.46,0.77-2.68,1.79-3.64,3.06
		c-0.96,1.27-1.67,2.71-2.12,4.32C199.94,24.53,199.71,26.17,199.71,27.85z"/>
</g>
</svg>
